# xmcd
#
# Track frame offsets: 
#        150
#        22956
#        46281
#        64351
#        83742
#        101823
#        121969
#        139854
#        159091
#        176737
#        196090
#        218578
#        237902
#        256365
#        271405
#        290871
#        311149
#
# Disc length: 4420 seconds
#
# Revision: 2
# Processed by: cddbd v1.5.2PL0 Copyright (c) Steve Scherf et al.
# Submitted via: ExactAudioCopy v0.99pb3
#
DISCID=f6114211
DTITLE=Pet Shop Boys - Pop Art: The Hits CD1
DYEAR=2003
DGENRE=Pop
TTITLE0=Go West
TTITLE1=Suburbia
TTITLE2=Se A Vida É (That's The Way Life Is)
TTITLE3=What Have I Done To Deserve This?
TTITLE4=Always On My Mind
TTITLE5=I Wouldn't Normally Do This Kind Of Thing
TTITLE6=Home And Dry
TTITLE7=Heart
TTITLE8=Miracles
TTITLE9=Love Comes Quickly
TTITLE10=It's A Sin
TTITLE11=Domino Dancing
TTITLE12=Before
TTITLE13=New York City Boy
TTITLE14=It's Alright
TTITLE15=Where The Streets Have No Name (I Can't Take My Eyes Off You)
TTITLE16=A Red Letter Day
EXTD=
EXTT0=
EXTT1=
EXTT2=
EXTT3=
EXTT4=
EXTT5=
EXTT6=
EXTT7=
EXTT8=
EXTT9=
EXTT10=
EXTT11=
EXTT12=
EXTT13=
EXTT14=
EXTT15=
EXTT16=
PLAYORDER=
